<?xml version="1.0" encoding="UTF-8" standalone="no"?>
<!-- Created with Inkscape (http://www.inkscape.org/) -->

<svg
   width="210mm"
   height="297mm"
   viewBox="0 0 210 297"
   version="1.1"
   id="svg1"
   inkscape:version="1.4 (86a8ad7, 2024-10-11)"
   sodipodi:docname="Albatross_logo1.svg"
   xmlns:inkscape="http://www.inkscape.org/namespaces/inkscape"
   xmlns:sodipodi="http://sodipodi.sourceforge.net/DTD/sodipodi-0.dtd"
   xmlns="http://www.w3.org/2000/svg"
   xmlns:svg="http://www.w3.org/2000/svg">
  <sodipodi:namedview
     id="namedview1"
     pagecolor="#505050"
     bordercolor="#eeeeee"
     borderopacity="1"
     inkscape:showpageshadow="0"
     inkscape:pageopacity="0"
     inkscape:pagecheckerboard="0"
     inkscape:deskcolor="#505050"
     inkscape:document-units="mm"
     inkscape:zoom="0.44"
     inkscape:cx="395.45455"
     inkscape:cy="773.86364"
     inkscape:window-width="1920"
     inkscape:window-height="991"
     inkscape:window-x="-9"
     inkscape:window-y="-9"
     inkscape:window-maximized="1"
     inkscape:current-layer="layer2" />
  <defs
     id="defs1" />
  <g
     inkscape:groupmode="layer"
     id="layer3"
     inkscape:label="Albatross 1" />
  <g
     inkscape:groupmode="layer"
     id="layer2"
     inkscape:label="Albatross"
     style="stroke:#ff6600;stroke-opacity:0.980916"
     transform="matrix(1.4880068,0,0,1.2670344,-17.13142,-72.74275)">
    <path
       style="fill:#ff2a2a;stroke:#ff6600;stroke-width:0.264583;stroke-opacity:0.980916"
       id="path1"
       d="m 42.237281,122.19766 c -0.06205,-1.26411 -0.01416,-2.49226 0.322585,-3.71439 0.328176,-1.08102 1.097931,-1.90889 1.789224,-2.77049 0.598702,-0.65847 1.369891,-1.11545 2.088348,-1.62781 1.21956,-0.84698 2.564622,-1.51792 3.916675,-2.12835 1.274082,-0.67238 2.688899,-0.94995 4.063479,-1.33037 1.722482,-0.46586 3.516484,-0.47256 5.281353,-0.63552 1.870308,-0.21438 3.752786,-0.28523 5.63327,-0.34075 1.821548,-0.0459 3.643929,-0.0378 5.4659,-0.0388 -0.02875,-1e-5 -0.115014,-5e-5 -0.08626,-4e-5 2.294625,7.9e-4 4.581125,0.002 6.873782,0.10862 2.875185,0.12215 5.748213,0.28391 8.622575,0.42345 3.114921,0.0926 6.244479,0.27085 9.357881,0.0378 1.634742,-0.12236 2.272501,-0.2669 3.908653,-0.53784 4.111624,-0.72994 8.017914,-2.19224 11.868504,-3.76203 3.78856,-1.45147 7.32079,-3.416 10.7629,-5.54142 1.87444,-1.308257 3.80345,-2.574809 5.47856,-4.139142 0.43929,-0.410824 0.83541,-0.858997 1.22251,-1.31794 0,0 -1.46821,-0.103923 -1.46821,-0.103923 v 0 c -0.38912,0.450291 -0.78475,0.893254 -1.21893,1.301506 -1.66165,1.549662 -3.56175,2.823329 -5.42374,4.115539 -3.43375,2.1203 -6.96418,4.06862 -10.74135,5.52008 -3.8544,1.55804 -7.76252,3.01064 -11.875429,3.72944 -1.653882,0.26608 -2.260722,0.40249 -3.910134,0.52045 -2.184588,0.15622 -4.369086,0.0467 -6.553912,-0.0384 -2.86921,-0.13939 -5.736616,-0.30809 -8.606851,-0.42606 -3.211144,-0.15319 -6.423019,-0.12058 -9.63735,-0.11601 -1.828075,-4e-5 -3.656692,-0.0122 -5.484227,0.0404 -1.879595,0.0601 -3.760677,0.13681 -5.630278,0.34996 -1.77129,0.15588 -3.570161,0.18032 -5.295135,0.65986 -1.379755,0.37515 -2.788415,0.67907 -4.064048,1.35409 -1.353704,0.6262 -2.705193,1.29518 -3.927081,2.15455 -0.733745,0.50995 -1.507781,0.98375 -2.096119,1.66901 -0.700333,0.8775 -1.464236,1.72741 -1.784641,2.83091 -0.335383,1.23601 -0.380341,2.47664 -0.336121,3.75364 z" />
    <path
       style="fill:#ff2a2a;stroke:#ff6600;stroke-width:0.264583;stroke-opacity:0.980916"
       id="path2"
       d="m 40.754686,119.521 c 0.01204,1.36248 0.0073,2.72503 0.0041,4.08753 -0.0024,0.91248 -0.0038,1.82496 -0.0045,2.73744 5.29e-4,0.6298 0.0024,1.25958 0.0024,1.88937 0,0 1.477227,0 1.477227,0 v 0 c 3.2e-5,-0.62979 0.0021,-1.25957 0.0024,-1.88937 -5.29e-4,-0.91248 -0.0021,-1.82496 -0.0045,-2.73744 -0.0031,-1.3625 -0.0079,-2.72505 0.0041,-4.08753 z" />
    <path
       style="fill:#ff2a2a;stroke:#ff6600;stroke-width:0.264583;stroke-opacity:0.980916"
       id="path3"
       d="m 42.510384,128.93215 c 1.062675,-1.01404 2.324206,-1.75145 3.580852,-2.49085 1.298229,-0.93121 2.590821,-1.82292 4.001559,-2.57861 1.303681,-0.68025 2.683605,-1.14054 4.109222,-1.4789 1.363856,-0.2733 2.741957,-0.47286 4.105243,-0.74865 1.798701,-0.3612 3.643826,-0.39714 5.471843,-0.45359 2.745642,-0.0582 5.492305,-0.0464 8.238421,-0.0473 2.086943,0.0202 4.169481,0.17138 6.252848,0.28201 2.620854,0.10583 5.245184,0.0989 7.867816,0.10791 2.358692,-0.0524 4.729819,0.16596 7.073596,-0.16039 1.838235,-0.27205 3.571901,-0.99361 5.305036,-1.63465 1.80986,-0.80845 3.65226,-1.5254 5.51318,-2.2072 1.91275,-0.84794 3.99528,-1.34875 5.81153,-2.39728 1.35096,-0.82829 2.44636,-2.01429 3.47953,-3.20177 1.15379,-1.17685 2.17306,-2.46869 3.2883,-3.68038 1.29873,-1.33224 2.5807,-2.67618 3.81575,-4.06772 0.86475,-0.95059 1.64,-1.97641 2.48203,-2.94694 0.67672,-0.80969 1.44955,-1.523454 2.20697,-2.253228 0.65735,-0.621138 1.42202,-1.109877 2.10044,-1.704438 0.36697,-0.356354 0.18341,-0.173598 0.55032,-0.548627 0,0 -1.47782,-0.115316 -1.47782,-0.115316 v 0 c -0.36693,0.368655 -0.18331,0.18995 -0.55036,0.536626 -0.68871,0.583673 -1.44007,1.090718 -2.09713,1.712677 -0.76213,0.728948 -1.52251,1.458946 -2.20341,2.267296 -0.83684,0.97216 -1.60902,1.99796 -2.47383,2.94582 -1.22857,1.39352 -2.50882,2.73478 -3.80493,4.06556 -1.11811,1.21245 -2.14844,2.49887 -3.29742,3.68349 -1.03195,1.17355 -2.12017,2.34497 -3.47201,3.1529 -1.8259,1.01238 -3.88139,1.54374 -5.79187,2.37555 -1.86492,0.6827 -3.71051,1.40286 -5.526951,2.20612 -1.729671,0.64332 -3.465833,1.34763 -5.30501,1.60175 -2.190985,0.27614 -1.083183,0.097 -4.206232,0.14575 -2.61502,-0.008 -5.231564,-0.002 -7.844935,-0.10429 -3.030614,-0.15537 -6.060855,-0.37936 -9.098457,-0.28344 -2.757541,-5.3e-4 -5.515766,-0.0164 -8.272762,0.0465 -1.835337,0.0606 -3.686823,0.10342 -5.491395,0.4749 -1.36416,0.26422 -2.738583,0.47507 -4.09957,0.75548 -1.427973,0.34905 -2.809479,0.82291 -4.111517,1.51656 -1.408565,0.762 -2.695832,1.67049 -4.007519,2.58368 -1.263915,0.74616 -2.5151,1.51221 -3.599675,2.51309 z" />
    <path
       style="fill:#ff2a2a;stroke:#ff6600;stroke-width:0.264583;stroke-opacity:0.980916"
       id="path4"
       d="m 62.069926,129.0322 c 0.526643,0.88745 1.032359,1.78675 1.46081,2.72628 0.449799,0.96642 0.826291,1.96286 1.217086,2.95349 0.364379,0.88762 0.522438,1.83813 0.780981,2.75787 0.329581,1.05364 0.497202,2.1467 0.759968,3.21674 0.357926,1.2922 0.414692,2.6327 0.593479,3.95315 0.2203,1.06946 0.234296,2.16573 0.39388,3.24181 0.234945,0.991 0.2569,2.00999 0.383778,3.01536 0.15657,0.91691 0.277627,1.83734 0.335161,2.76572 0.04837,1.14565 0.0478,2.29286 0.05188,3.43933 -0.05295,1.51125 0.02024,3.00965 0.167471,4.51231 0.201811,1.45485 0.574918,2.8769 0.789607,4.33046 0.104518,1.28378 0.290295,2.55844 0.422288,3.83944 0.105508,1.09068 0.130659,2.1867 0.144066,3.28168 0.0083,1.09663 0.0084,2.19332 0.0072,3.28997 5.29e-4,1.50286 0.0036,3.00572 0.0021,4.50859 0.0056,1.6493 3.7e-5,3.2986 -0.0021,4.9479 -0.05712,1.70759 0.08035,3.40731 0.182941,5.11001 0.162104,2.19294 0.104113,4.39539 0.238823,6.58864 0.07722,1.44521 0.288028,2.8732 0.479579,4.30558 0.09683,1.03449 0.379727,2.03509 0.514611,3.06421 0.165487,1.42466 0.681205,2.75355 1.179113,4.08735 0.83915,2.02107 1.976724,3.90311 3.154596,5.74203 1.291545,1.93388 2.915499,3.60484 4.604303,5.19066 1.693037,1.64408 3.604522,3.06239 5.58197,4.34454 2.883349,1.64175 5.836277,3.15947 8.815366,4.61918 2.095714,1.07398 4.253449,1.95746 6.520977,2.59271 3.35044,0.88597 6.72433,1.68585 10.1316,2.32171 3.26628,0.68251 6.59007,0.63136 9.90547,0.58982 3.39603,-0.0522 6.67772,-0.8684 9.90817,-1.84127 2.84388,-0.9022 5.66759,-1.88741 8.27454,-3.34975 1.61855,-0.98895 3.16244,-2.09284 4.26608,-3.65201 0.46687,-0.83119 0.2599,-0.4149 0.62668,-1.24597 0,0 -1.46943,-0.0614 -1.46943,-0.0614 v 0 c -0.3619,0.81192 -0.15725,0.40551 -0.61985,1.21623 -1.10971,1.52682 -2.63704,2.62055 -4.24283,3.58967 -2.60048,1.44096 -5.4067,2.43227 -8.23813,3.32255 -3.23792,0.95793 -6.52473,1.7634 -9.92414,1.80069 -2.33709,0.0507 -4.74378,-0.12122 -7.07522,-0.56571 -3.40581,-0.62487 -6.77549,-1.42639 -10.12275,-2.31027 -2.289019,-0.62904 -4.390329,-1.50302 -6.506908,-2.56796 -2.983617,-1.44503 -5.940748,-2.94998 -8.81615,-4.60151 -1.972672,-1.27551 -3.881249,-2.68633 -5.573696,-4.3197 -1.688365,-1.56832 -3.303744,-3.22955 -4.584433,-5.1562 -1.188699,-1.82218 -2.339054,-3.68881 -3.160075,-5.70994 -0.490376,-1.32311 -0.993651,-2.643 -1.155994,-4.05467 -0.134022,-1.03057 -0.420735,-2.02989 -0.524621,-3.06447 -0.189695,-1.42947 -0.404728,-2.85402 -0.488823,-4.29559 -0.15009,-2.1922 -0.09251,-4.39475 -0.24816,-6.58764 -0.09637,-1.69997 -0.216657,-3.39755 -0.165087,-5.10154 -0.0021,-1.6493 -0.0078,-3.29858 -0.0019,-4.94788 -0.0011,-1.50282 0.0026,-3.00565 0.0062,-4.50847 7.93e-4,-1.09738 0.0079,-2.19478 -0.0011,-3.29214 -0.0168,-1.09933 -0.04491,-2.19978 -0.150849,-3.29475 -0.131916,-1.28317 -0.32113,-2.5597 -0.423566,-3.84595 -0.215072,-1.45111 -0.596824,-2.86947 -0.789819,-4.32323 -0.147084,-1.49765 -0.234754,-2.99133 -0.175426,-4.49803 0.0026,-1.14937 0.02032,-2.29956 -0.0346,-3.44812 -0.05429,-0.93229 -0.17979,-1.85581 -0.340646,-2.77567 -0.131591,-1.00578 -0.136041,-2.02805 -0.37973,-3.019 -0.169992,-1.07383 -0.171693,-2.17187 -0.400161,-3.23949 -0.185648,-1.32462 -0.239046,-2.67048 -0.593744,-3.96864 -0.266075,-1.07077 -0.420153,-2.16814 -0.756388,-3.22177 -0.262792,-0.92357 -0.40998,-1.8816 -0.778983,-2.77308 -0.396375,-0.99086 -0.771552,-1.99018 -1.218534,-2.96041 -0.426519,-0.94829 -0.944065,-1.84582 -1.454232,-2.75075 z" />
    <path
       style="fill:#ff2a2a;stroke:#ff6600;stroke-width:0.264583;stroke-opacity:0.980916"
       id="path5"
       d="m 62.164144,130.12216 c 1.06113,0.79425 2.038282,1.68902 3.023786,2.57276 1.08095,0.904 2.120101,1.85063 3.164244,2.79589 0.64879,0.5714 1.272921,1.17307 1.870165,1.79832 0.958321,1.16375 2.029034,2.22713 2.986868,3.39109 0.916906,1.01707 1.702411,2.13886 2.472487,3.26809 0.887732,1.19166 1.478708,2.55716 2.010404,3.93494 0.508019,1.34058 0.878234,2.72486 1.349563,4.07838 0.631833,2.05471 1.324565,4.08943 1.971363,6.13953 0.749138,2.16129 1.246497,4.39785 1.771552,6.62117 0.304649,1.55548 0.543547,3.12446 0.776404,4.69245 0.343437,1.87309 0.618733,3.75668 0.936125,5.63415 0.260262,1.8507 0.410689,3.71518 0.60539,5.57421 0.162663,1.30419 0.156364,2.62022 0.266838,3.92775 0.154093,1.51304 0.254084,3.02983 0.305964,4.54956 0.119158,1.32849 0.271804,2.65293 0.354121,3.9845 0.04156,1.33643 0.293759,2.65664 0.571656,3.96107 0.306599,1.43299 0.505952,2.88459 0.815525,4.31716 0.212828,1.1971 0.515424,2.37306 0.828329,3.54714 0.381156,1.31509 0.838906,2.60131 1.37868,3.85924 0.645726,1.68687 1.610878,3.14988 2.708121,4.56895 0.999382,1.22088 2.102144,2.35212 3.123232,3.55342 0.662853,0.86772 1.515443,1.55756 2.299375,2.31043 1.055835,1.07109 2.216475,2.02217 3.423304,2.91547 1.29298,0.98904 2.79699,1.56166 4.30978,2.11306 1.55942,0.54775 3.17202,0.91047 4.75216,1.392 1.91385,0.54456 3.84995,0.99949 5.79613,1.41162 1.60847,0.35969 3.24542,0.46972 4.88738,0.5164 2.23518,0.0115 4.47949,0.11077 6.70909,-0.0882 1.32881,-0.0724 2.55972,-0.58238 3.75711,-1.12046 1.04601,-0.47976 2.05334,-1.03939 3.10076,-1.51626 1.33196,-0.56612 2.57126,-1.31441 3.86918,-1.94893 1.71615,-0.86918 3.52568,-1.52451 5.27859,-2.31439 1.18689,-0.50297 2.36592,-1.03194 3.58275,-1.45956 0,0 -1.46311,-0.18039 -1.46311,-0.18039 v 0 c -1.20718,0.44094 -2.38271,0.96529 -3.56259,1.47348 -1.75757,0.7871 -3.57235,1.44036 -5.288,2.31854 -1.29588,0.64332 -2.54791,1.37226 -3.87944,1.94386 -1.04354,0.48533 -2.05611,1.03432 -3.1022,1.51467 -1.19185,0.5336 -2.42326,1.00597 -3.74356,1.07258 -0.24832,0.021 -0.58427,-0.12751 -0.74494,0.063 -0.14123,0.16743 0.87067,7.9e-4 0.65571,0.0428 -0.28566,0.0559 -0.58214,2.3e-4 -0.87321,-2.6e-4 -0.95206,-0.002 -1.90417,-0.006 -2.85607,-0.0245 -1.63939,-0.0427 -3.27542,-0.13905 -4.88318,-0.49048 -1.94664,-0.40676 -3.88184,-0.86111 -5.79697,-1.39816 -1.57648,-0.48856 -3.18336,-0.85783 -4.74732,-1.38513 -1.50463,-0.54687 -3.0071,-1.09919 -4.3012,-2.07176 -1.20175,-0.88665 -2.36605,-1.82402 -3.409055,-2.89726 -0.777632,-0.75626 -1.637033,-1.43361 -2.302687,-2.2956 -1.020398,-1.20395 -2.131039,-2.33057 -3.139694,-3.54568 -1.090184,-1.40661 -2.057969,-2.85711 -2.694639,-4.5328 -0.540065,-1.24962 -0.989467,-2.53039 -1.368626,-3.838 -0.311301,-1.17269 -0.625856,-2.34393 -0.835771,-3.54007 -0.310314,-1.43229 -0.511429,-2.88369 -0.817274,-4.31674 -0.277831,-1.29651 -0.519065,-2.61145 -0.563475,-3.93949 -0.08547,-1.3302 -0.240798,-2.65307 -0.360879,-3.98033 -0.05418,-1.5221 -0.155045,-3.04051 -0.304233,-4.55649 -0.104437,-1.30919 -0.101098,-2.62671 -0.272913,-3.93132 -0.203695,-1.86148 -0.35239,-3.72885 -0.610206,-5.58308 -0.318833,-1.87563 -0.604043,-3.75577 -0.923253,-5.63143 -0.235217,-1.57255 -0.489119,-3.14419 -0.793263,-4.70467 -0.534014,-2.22551 -1.028099,-4.46717 -1.782937,-6.63117 -0.643046,-2.05048 -1.329224,-4.08662 -1.948008,-6.14444 -0.467275,-1.35658 -0.844762,-2.74076 -1.352211,-4.08326 -0.531466,-1.38537 -1.116605,-2.76791 -2.002557,-3.96941 -0.774005,-1.13198 -1.558208,-2.26292 -2.481541,-3.2804 -0.953008,-1.1671 -2.034479,-2.22077 -2.970535,-3.40211 -0.58882,-0.63968 -1.232358,-1.23086 -1.879679,-1.81044 -1.053992,-0.93503 -2.083004,-1.896 -3.168722,-2.7956 -0.988277,-0.88306 -1.967915,-1.77462 -3.010119,-2.59509 z" />
    <path
       style="fill:#ff2a2a;stroke:#ff6600;stroke-width:0.264583;stroke-opacity:0.980916"
       id="path6"
       d="m 143.85343,224.0997 c 0.55981,-1.00852 1.32909,-1.86632 2.0529,-2.75453 0.49702,-0.63405 1.09068,-1.17937 1.62296,-1.78246 0.3438,-0.38736 0.16734,-0.19052 0.52963,-0.59031 0,0 -1.47755,-0.10903 -1.47755,-0.10903 v 0 c -0.36411,0.40124 -0.18671,0.20396 -0.53241,0.59165 -0.53575,0.59954 -1.12376,1.15199 -1.61685,1.78902 -0.7311,0.89286 -1.48276,1.77296 -2.06017,2.77868 z" />
    <path
       style="fill:#ff2a2a;stroke:#ff6600;stroke-width:0.264583;stroke-opacity:0.980916"
       id="path7"
       d="m 84.59114,145.84847 c 3.534677,1.03229 7.245869,1.2559 10.90031,1.52705 0.613661,0.0218 1.226947,0.0618 1.840986,0.0655 1.704697,0.0103 3.181894,0.0226 4.833884,-0.16544 1.81947,-0.20712 3.61788,-0.58993 5.40973,-0.95632 2.28285,-0.58647 4.59588,-1.11432 6.83582,-1.85668 1.5095,-0.50028 2.37183,-0.88301 3.85327,-1.48841 3.06035,-1.26273 5.99461,-2.80724 8.80318,-4.55578 1.53149,-0.80324 2.78405,-1.93614 3.98241,-3.15682 0.94899,-0.96857 1.90611,-1.92912 2.86396,-2.88892 0.4814,-0.54552 0.2423,-0.28647 0.71525,-0.77904 0,0 -1.47362,-0.11217 -1.47362,-0.11217 v 0 c -0.46725,0.49713 -0.23027,0.23882 -0.70988,0.77593 -0.95595,0.96097 -1.90989,1.92393 -2.86028,2.8904 -1.1871,1.21258 -2.4469,2.3154 -3.95597,3.12426 -2.79629,1.73882 -5.70973,3.28899 -8.76067,4.53604 -1.63085,0.65981 -2.21605,0.92982 -3.87237,1.47171 -2.23881,0.73246 -4.54167,1.27603 -6.82478,1.84597 -3.05413,0.61887 -6.15646,1.26731 -9.289082,1.03975 -3.62747,-0.26231 -7.315946,-0.47244 -10.823107,-1.50148 z" />
    <path
       style="fill:#ff2a2a;stroke:#ff6600;stroke-width:0.264583;stroke-opacity:0.980916"
       id="path8"
       d="m 134.25657,131.36986 c 0.76105,1.52273 1.37466,3.10505 1.91246,4.71819 0.52516,1.5706 1.04465,3.14258 1.51184,4.73178 0.41961,1.6606 0.71092,3.3441 0.88091,5.04756 0.122,1.33882 0.12846,2.70656 -0.20585,4.01864 -0.15966,0.62661 -0.45427,1.34903 -0.68519,1.95396 -0.72092,1.7041 -1.7917,3.23088 -2.89898,4.70303 -0.75031,1.13031 -1.75716,2.03828 -2.82128,2.86376 -1.10665,0.85162 -2.30611,1.55177 -3.53153,2.21598 -1.56396,0.91103 -3.29172,1.40018 -5.0488,1.77161 -1.69484,0.40179 -3.40865,0.71066 -5.14428,0.85863 -1.91084,0.10042 -3.82571,0.0871 -5.7386,0.0878 0.13388,-2.6e-4 0.53552,-2.6e-4 0.40164,-7.9e-4 -1.59052,-0.005 -3.18221,0.0245 -4.77119,-0.0495 -1.90219,-0.1491 -3.77806,-0.44982 -5.62421,-0.92608 -2.226,-0.60733 -4.404336,-1.35866 -6.536984,-2.23601 -1.627976,-0.77745 -3.033419,-1.92636 -4.507941,-2.94937 -1.18304,-0.73747 -2.019081,-1.79199 -2.739621,-2.961 -0.709337,-1.21128 -1.277789,-2.49065 -1.64902,-3.84382 -0.17529,-0.83787 -0.324361,-1.71116 -0.22065,-2.56736 0.05348,-0.61807 0.320625,-1.12267 0.644933,-1.63267 0,0 -1.485218,-0.0842 -1.485218,-0.0842 v 0 c -0.33475,0.5269 -0.584001,1.06784 -0.643985,1.70001 -0.09407,0.87694 0.04526,1.76675 0.231209,2.62379 0.376558,1.36499 0.951796,2.65439 1.651765,3.88522 0.724786,1.18839 1.557953,2.2739 2.759805,3.0207 1.485588,1.02002 2.884807,2.18671 4.512979,2.9803 2.135987,0.87411 4.311864,1.63747 6.537018,2.25564 1.84706,0.48882 3.72276,0.79448 5.62795,0.95573 2.41291,0.13276 4.83401,0.002 7.24905,0.057 1.91781,-0.001 3.83809,0.0125 5.75335,-0.0986 1.73093,-0.16048 3.43868,-0.48108 5.13059,-0.87869 1.76526,-0.38482 3.4966,-0.88987 5.06668,-1.81148 1.23011,-0.66999 2.43232,-1.37975 3.54159,-2.23957 1.06374,-0.84057 2.06279,-1.76492 2.81661,-2.90313 1.10414,-1.48774 2.17372,-3.02722 2.89154,-4.74433 0.23077,-0.61522 0.52243,-1.34351 0.68236,-1.97954 0.33347,-1.32616 0.33694,-2.70702 0.21209,-4.05999 -0.16606,-1.71348 -0.45362,-3.40547 -0.87742,-5.07511 -0.46875,-1.59052 -0.98027,-3.16655 -1.5107,-4.73717 -0.54172,-1.61323 -1.15832,-3.1943 -1.89174,-4.73103 z" />
    <path
       style="fill:#ff2a2a;stroke:#ff6600;stroke-width:0.264583;stroke-opacity:0.980916"
       id="path9"
       d="m 84.983737,145.95062 c 0.161967,1.1298 0.203168,2.26767 0.408186,3.39111 0.07763,0.72331 0.415875,1.36641 0.680426,2.03174 0,0 1.480704,-0.0558 1.480704,-0.0558 v 0 c -0.25934,-0.65791 -0.603631,-1.2889 -0.683266,-2.00308 -0.212394,-1.12023 -0.261336,-2.25438 -0.400677,-3.38501 z" />
    <path
       style="fill:#ff2a2a;stroke:#ff6600;stroke-width:0.264583;stroke-opacity:0.980916"
       id="path10"
       d="m 62.293139,144.84382 c -1.393171,0.34334 -2.800897,0.61044 -4.187452,0.97975 -0.999849,0.26543 -2.025948,0.38229 -3.056416,0.43093 -0.964681,-0.0316 -1.947368,0.10714 -2.910229,0.0252 -0.107214,-0.009 0.213344,-0.0282 0.320017,-0.0423 -0.412139,-0.0211 -0.824281,-0.0422 -1.23642,-0.0633 -2.154348,-0.10509 -4.283516,-0.42838 -6.397915,-0.83841 -2.462364,-0.54603 -4.94233,-1.05211 -7.32748,-1.88067 -2.646796,-1.07329 -5.287769,-2.14972 -7.881858,-3.34544 -1.013219,-0.58317 -2.134359,-0.98391 -3.056498,-1.71215 -0.654999,-0.48104 -1.156332,-1.1275 -1.742434,-1.68396 -0.70099,-0.63288 -1.377934,-1.29119 -2.059131,-1.94502 0,0 -1.477007,0.12024 -1.477007,0.12024 v 0 c 0.690068,0.64562 1.356821,1.31635 2.062782,1.94538 0.594101,0.55184 1.084606,1.21136 1.740094,1.69513 0.92033,0.76235 2.059843,1.15555 3.09049,1.74559 2.602963,1.18693 5.247923,2.26524 7.891592,3.3576 2.375281,0.84683 4.85584,1.33849 7.310001,1.9042 2.120421,0.41977 4.258323,0.73791 6.419048,0.8561 2.236664,0.11913 4.477735,0.14761 6.716797,0.0855 1.030616,-0.0588 2.055234,-0.19004 3.053641,-0.4623 1.389703,-0.36905 2.801964,-0.63395 4.198475,-0.97606 z" />
    <path
       style="fill:#ff2a2a;stroke:#ff6600;stroke-width:0.264583;stroke-opacity:0.980916"
       id="path11"
       d="m 20.435227,134.80832 c 0.420973,1.615 1.168777,3.10915 1.951781,4.57326 0.965339,1.78637 2.162082,3.42637 3.304456,5.09955 1.269318,1.89073 2.722473,3.64324 4.199025,5.37309 1.420961,1.71154 2.964127,3.2888 4.740807,4.62747 1.735429,1.27075 3.637137,2.27809 5.59874,3.14782 1.521367,0.56433 3.037633,1.14814 4.602347,1.5824 1.03605,0.36241 2.109576,0.56841 3.184943,0.77122 1.193578,0.23823 2.355273,0.60326 3.543398,0.86398 0.850519,0.18173 1.7188,0.23139 2.585585,0.25483 1.362919,-0.0418 2.760422,0.21364 4.086103,-0.16954 0.751742,-0.17616 1.283187,-0.68392 1.759514,-1.2587 0.351282,-0.54831 0.755851,-1.05683 1.146995,-1.57689 0.537361,-0.63918 1.025803,-1.32336 1.410364,-2.06617 0.390843,-0.61776 0.75438,-1.24157 0.977495,-1.93984 0.315257,-0.86184 0.458875,-1.76128 0.541671,-2.67058 0.07654,-0.90728 0.09998,-1.80925 -0.03591,-2.71028 -0.08808,-0.85541 -0.443373,-1.6366 -0.706956,-2.44344 -0.03542,-0.13883 -0.07085,-0.27767 -0.106272,-0.4165 0,0 -1.480193,0.0366 -1.480193,0.0366 v 0 c 0.0354,0.142 0.07079,0.284 0.10619,0.426 0.253812,0.80206 0.622501,1.5702 0.705729,2.41993 0.138835,0.88882 0.113673,1.77843 0.03903,2.67418 -0.08326,0.89871 -0.229595,1.78749 -0.54641,2.63746 -0.227735,0.68754 -0.600739,1.29748 -0.974439,1.91494 -0.389901,0.73324 -0.878615,1.40746 -1.412653,2.04195 -0.389892,0.51753 -0.7855,1.02981 -1.145902,1.56869 -0.476404,0.55449 -1.009282,1.01127 -1.746208,1.16887 -0.523613,0.12503 -1.8904,0.13609 0.176345,0.13963 0.298799,5.3e-4 -1.195464,5.3e-4 -0.896398,-0.001 -0.144449,-0.001 -0.288896,-0.002 -0.433345,-0.004 -0.866571,-0.0177 -1.735399,-0.0558 -2.587818,-0.22648 -1.192475,-0.24952 -2.354189,-0.61758 -3.546819,-0.86738 -1.074814,-0.19992 -2.151523,-0.39366 -3.18579,-0.75917 -1.569169,-0.41788 -3.082562,-1.00545 -4.607232,-1.55998 -1.967439,-0.85251 -3.876251,-1.84837 -5.614381,-3.11255 -1.775965,-1.32425 -3.312224,-2.89653 -4.7323,-4.59612 -1.474627,-1.72535 -2.931137,-3.46878 -4.195797,-5.35737 -1.133217,-1.67268 -2.335449,-3.30243 -3.297264,-5.08475 -0.779489,-1.44418 -1.521646,-2.92159 -1.923054,-4.52247 z" />
    <path
       style="fill:#ff2a2a;stroke:#ff6600;stroke-width:0.264583;stroke-opacity:0.980916"
       id="path12"
       d="m 61.54648,144.79797 c 0.02273,0.17805 0.04547,0.3561 0.0682,0.53416 0,0 1.475851,-0.0174 1.475851,-0.0174 v 0 c -0.01955,-0.17928 -0.03912,-0.35856 -0.05868,-0.53785 z" />
    <path
       style="fill:#f66f11;fill-opacity:0.969466;stroke:none;stroke-width:0.264583;stroke-opacity:0.980916"
       id="path13"
       d="m 61.592867,144.42387 c 0.04355,0.1627 0.0871,0.3254 0.130654,0.4881 0,0 1.476973,-0.0374 1.476973,-0.0374 v 0 c -0.04104,-0.16399 -0.08207,-0.32799 -0.123108,-0.49199 z" />
    <path
       style="fill:#f66f11;fill-opacity:0.969466;stroke:none;stroke-width:1.45216;stroke-opacity:0.980916"
       d="M 398.05646,618.43379 C 386.05347,616.4405 364.58944,608.803 356.50528,603.64872 341.7633,594.24955 332.79159,583.4061 331.64606,573.6032 c -0.23333,-1.99672 -0.86527,-5.47459 -1.4043,-7.7286 -0.95443,-3.99098 1.72639,-11.67717 3.6567,-10.48417 0.50386,0.31139 9.67209,1.2683 20.37386,2.12645 23.06667,1.84965 37.6863,0.47263 62.41646,-5.87901 32.50608,-8.34879 64.41487,-24.56061 81.56177,-41.43889 l 9.5987,-9.44833 3.6687,9.19827 c 6.82531,17.11264 10.23322,31.80328 10.38714,44.7762 0.12689,10.69582 -0.38242,13.40942 -3.81571,20.33024 -12.31338,24.82124 -32.5624,38.68595 -63.5633,43.52243 -11.29974,1.76288 -45.51228,1.67564 -56.46962,-0.144 z"
       id="path14"
       transform="scale(0.26458333)" />
    <path
       style="fill:#f66f11;fill-opacity:0.969466;stroke:none;stroke-width:1.45216;stroke-opacity:0.980916"
       d="m 434.19584,882.86212 c -11.85068,-1.40818 -40.57096,-7.83643 -52.48239,-11.74675 -11.6111,-3.81173 -44.24643,-20.11031 -56.42961,-28.18181 -12.63856,-8.37318 -28.11745,-23.86737 -35.99054,-36.02607 -15.63256,-24.14196 -17.66377,-36.24212 -19.2968,-114.95325 -0.87942,-42.38731 -1.85681,-62.67598 -3.39292,-70.42976 -1.18672,-5.99016 -2.19331,-17.09918 -2.23686,-24.68672 -0.0983,-17.13297 -4.87545,-56.01653 -8.97282,-73.0348 -1.69103,-7.02359 -2.77316,-13.07159 -2.40476,-13.43999 1.92007,-1.92007 27.03137,26.12538 33.92589,37.88998 4.10617,7.00665 17.72913,46.40722 22.32147,64.55857 4.90404,19.38335 10.10861,56.59936 12.48947,89.30784 2.56983,35.30445 8.34867,68.75756 14.49281,83.89743 5.51224,13.58279 12.62726,23.33283 28.90701,39.61257 17.08444,17.08445 24.09157,20.99073 50.19197,27.98069 25.594,6.85431 32.56234,7.79794 53.73807,7.2769 l 19.59601,-0.48215 24.68672,-11.8234 c 13.5777,-6.50286 26.30369,-12.31132 28.27998,-12.90768 l 3.59324,-1.0843 -3.74735,4.92082 c -2.06103,2.70643 -4.21732,6.40747 -4.79175,8.2245 -4.07235,12.88163 -38.70655,29.4945 -71.98148,34.5271 -14.9165,2.25602 -16.32762,2.2838 -30.49536,0.60028 z"
       id="path15"
       transform="scale(0.26458333)" />
    <path
       style="fill:#f66f11;fill-opacity:0.969466;stroke:none;stroke-width:1.45216;stroke-opacity:0.980916"
       d="m 190.23296,603.52277 c -40.41693,-9.48176 -58.55278,-21.03558 -81.81967,-52.12493 -8.21333,-10.97468 -19.83153,-29.09058 -19.83153,-30.92267 0,-0.49651 2.193733,1.02337 4.874961,3.37752 2.681229,2.35415 14.280359,8.24242 25.775839,13.08504 32.71197,13.78034 57.29117,18.62926 88.0895,17.37805 10.16885,-0.41312 19.88933,-1.20145 21.60106,-1.75185 2.64045,-0.84903 3.38014,-0.18898 4.87953,4.35427 0.97202,2.94525 1.50714,9.44089 1.18916,14.43476 -0.62405,9.80051 -5.96805,20.59469 -15.18542,30.67259 -5.53042,6.04673 -9.35525,6.24037 -29.57343,1.49722 z"
       id="path16"
       transform="scale(0.26458333)" />
    <path
       style="fill:#f66f11;fill-opacity:0.969466;stroke:none;stroke-width:1.45216;stroke-opacity:0.980916"
       d="m 161.18976,464.91085 c 0,-14.92834 0.20801,-16.0093 4.25589,-22.11612 6.93836,-10.46756 27.77367,-21.4187 46.56971,-24.47728 17.70903,-2.88169 54.76227,-3.46552 99.13496,-1.56203 47.14155,2.02227 57.54965,1.43958 78.80958,-4.41212 13.17976,-3.62767 36.63284,-12.77997 50.0033,-19.51323 5.77723,-2.90936 10.81462,-4.97918 11.19422,-4.59958 0.72955,0.72955 -26.97065,31.47128 -36.16981,40.14131 -3.96056,3.73277 -11.7478,7.60561 -29.02612,14.43562 -40.56757,16.03612 -32.46591,14.91699 -99.88597,13.79778 -76.83241,-1.27547 -88.89995,0.50934 -113.9325,16.85076 l -10.95326,7.15037 z"
       id="path17"
       transform="scale(0.26458333)" />
    <path
       style="fill:none;fill-opacity:0.969466;stroke:none;stroke-width:1.45216;stroke-opacity:0.980916"
       d="M -1.45216,561.98592 V 1.45216 H 395.7136 792.87936 V 561.98592 1122.5197 H 395.7136 -1.45216 Z m 487.19968,320.43147 c 34.72076,-9.59358 51.90109,-19.33681 59.12526,-33.53081 1.65374,-3.24923 5.85398,-9.24552 9.33388,-13.32505 3.47991,-4.07956 6.3271,-7.83702 6.3271,-8.34992 0,-2.00037 -10.43937,-0.78339 -17.7352,2.06748 -4.22268,1.65003 -19.40064,8.60059 -33.72878,15.4457 -25.20118,12.03956 -26.4568,12.46837 -38.48224,13.14222 -18.59304,1.04185 -58.075,-7.57775 -76.3261,-16.66332 -8.74868,-4.35519 -37.59025,-32.91596 -43.60658,-43.18204 -10.4194,-17.77937 -17.17552,-47.5309 -20.29402,-89.36757 -1.16092,-15.57441 -2.50705,-31.91121 -2.99142,-36.304 -1.42893,-12.95907 -7.85993,-50.84138 -10.23069,-60.26464 -3.24186,-12.88571 -17.51228,-56.5537 -20.27594,-62.04509 -4.94196,-9.81966 -18.44387,-25.69264 -37.70433,-44.32563 -20.05997,-19.40643 -25.3607,-22.66928 -25.3607,-15.61072 0,1.99672 0.66171,3.6304 1.47047,3.6304 2.13324,0 8.3135,14.72313 11.62566,27.69558 3.87695,15.18451 8.67432,52.97326 8.6809,68.37926 0.003,6.91659 1.30803,21.29297 2.90018,31.94752 2.21324,14.81085 2.90679,27.06476 2.94565,52.04548 0.0944,60.68731 3.28796,98.97062 9.57055,114.72872 7.78049,19.51523 27.69953,44.0664 45.60209,56.20679 10.70611,7.26021 42.35964,23.42541 54.6355,27.90189 11.28973,4.11689 38.02154,10.63316 53.99186,13.16128 15.05555,2.38333 45.89498,0.65935 60.5269,-3.38353 z M 473.40416,619.36888 c 20.24706,-5.55132 35.61173,-16.00441 45.59308,-31.0185 3.68883,-5.5488 7.68217,-12.85272 8.87407,-16.23094 4.78461,-13.56105 1.16311,-39.4808 -9.12589,-65.3156 -4.24237,-10.65223 -4.45786,-10.90139 -9.82073,-11.35555 -5.10178,-0.43205 -6.25004,0.29059 -16.50841,10.38956 -6.06388,5.96966 -14.61933,13.11636 -19.01212,15.88156 -30.68892,19.31836 -73.88883,33.01726 -104.05754,32.99714 -11.1774,-0.007 -34.587,-2.74451 -43.3367,-5.06694 -5.29864,-1.40642 -6.13911,0.72101 -4.97661,12.59715 1.37085,14.0048 6.99278,26.98604 14.70437,33.95301 12.62945,11.40994 30.36609,19.79868 51.98904,24.58877 14.08086,3.11931 72.66304,2.1486 85.67744,-1.41966 z M 222.91138,608.18863 c 5.43744,-2.47747 17.54284,-21.27237 19.46062,-30.21467 2.08838,-9.73775 2.01096,-12.68057 -0.55773,-21.20285 -1.29758,-4.30507 -1.59031,-7.31856 -0.73904,-7.60828 0.77525,-0.26385 0.48186,-1.40742 -0.65199,-2.54128 -2.33523,-2.33522 -7.48176,-2.74836 -8.7464,-0.70212 -0.46209,0.74767 -5.83384,2.4704 -11.93719,3.82827 -13.25735,2.94948 -31.10019,2.13097 -53.14987,-2.43818 -27.87336,-5.77592 -56.63737,-18.24916 -70.537215,-30.5878 -8.118941,-7.20704 -10.369418,-8.46572 -15.13642,-8.46572 -5.139065,0 -5.51621,0.2687 -4.586224,3.26736 2.052585,6.6184 9.925505,21.0067 17.654046,32.26399 17.991563,26.20626 33.224063,41.10542 51.222373,50.10147 23.90208,11.94689 65.90453,19.67648 77.70504,14.29981 z M 174.58149,479.03872 c 16.46361,-10.85953 21.98743,-13.3207 37.60103,-16.75322 11.0005,-2.41839 18.29925,-2.63332 75.58959,-2.2259 44.76186,0.31831 65.26353,-0.0435 69.70368,-1.2302 3.45965,-0.92464 18.05279,-6.26336 32.42917,-11.86381 l 26.13888,-10.18268 14.39172,-14.72602 c 7.91545,-8.09931 20.45424,-21.63889 27.86396,-30.08794 7.40973,-8.44908 16.46108,-17.81108 20.11409,-20.80445 3.65301,-2.99336 6.31464,-5.9719 5.91475,-6.61896 -0.3999,-0.64705 0.24592,-1.98398 1.43515,-2.97097 3.23268,-2.68288 2.61997,-4.34321 -1.60279,-4.34321 -2.5074,0 -6.59898,2.56457 -12.24916,7.6777 -17.14703,15.51717 -54.86507,34.70988 -85.85613,43.68763 -18.99139,5.50158 -33.7608,6.60918 -66.33012,4.97436 -38.66734,-1.94092 -105.20134,-0.61907 -118.60115,2.35627 -12.42008,2.7578 -28.31693,10.40336 -36.86429,17.72981 -9.80685,8.40604 -11.7135,14.05 -11.75118,34.78548 -0.0175,9.65082 0.40376,17.98259 0.93622,18.51504 2.55562,2.55563 8.80788,0.21319 21.13658,-7.91893 z"
       id="path18"
       transform="scale(0.26458333)" />
    <circle
       id="path19"
       style="fill:#cb2e06;fill-opacity:0.973282;stroke:#000000;stroke-width:0.264583"
       cx="-90.675285"
       cy="128.3286"
       r="0.019191654" />
    <circle
       id="path27"
       style="fill:#cb2e06;stroke:#000000;stroke-width:0.264583"
       cx="137.58333"
       cy="79.63958"
       r="0.013215938" />
  </g>
</svg>
